<svg xmlns="http://www.w3.org/2000/svg" width="27.843" height="27.842" viewBox="0 0 27.843 27.842"><defs><style>.a,.c{fill:none;}.b{fill:#f2f2f2;}.c{stroke:#f2f2f2;stroke-linecap:round;stroke-width:2px;}</style></defs><path class="a" d="M0,0H27.842V27.842H0Z"/><path class="b" d="M25.362,10.118H19.805l-5.081-7.61a1.152,1.152,0,0,0-.963-.487,1.134,1.134,0,0,0-.963.5l-5.081,7.6H2.16A1.164,1.164,0,0,0,1,11.278a.977.977,0,0,0,.046.313L3.993,22.345A2.307,2.307,0,0,0,6.22,24.039H21.3a2.331,2.331,0,0,0,2.239-1.694l2.947-10.754.035-.313A1.164,1.164,0,0,0,25.362,10.118Zm-11.6-4.872,3.248,4.872h-6.5ZM21.3,21.719l-15.07.012L3.68,12.438H23.854Z" transform="translate(0.16 0.323)"/><line class="c" x2="4.805" transform="translate(11.476 17.393)"/><line class="c" x2="4.805" transform="translate(13.879 14.99) rotate(90)"/></svg>