<svg xmlns="http://www.w3.org/2000/svg" width="25.749" height="22.53">
    <path fill="#254c50" data-name="Icon awesome-camera"
        d="M25.749 5.633v14.483a2.415 2.415 0 01-2.414 2.414H2.414A2.415 2.415 0 010 20.116V5.633a2.415 2.415 0 012.414-2.414H6.84l.619-1.655A2.411 2.411 0 019.716 0h6.311a2.411 2.411 0 012.258 1.564l.624 1.655h4.426a2.415 2.415 0 012.414 2.414zm-6.84 7.242a6.035 6.035 0 10-6.035 6.035 6.04 6.04 0 006.035-6.036zm-1.609 0a4.426 4.426 0 11-4.426-4.425 4.432 4.432 0 014.426 4.424z" />
</svg>