<svg xmlns="http://www.w3.org/2000/svg" width="40" height="40" viewBox="0 0 40 40">
  <path id="Path_4" data-name="Path 4" d="M39.935,16.194a1.8,1.8,0,0,0-1.709-1.359H25.588Q23.782,9.023,21.977,3.211c-.091-.29-.18-.58-.271-.868a.064.064,0,0,1-.005-.014,1.932,1.932,0,0,0-.817-1.083l-.024-.017a1.706,1.706,0,0,0-.233-.114c-.033-.014-.064-.029-.1-.04s-.039-.019-.059-.025c-.04-.011-.078-.012-.117-.02A1.609,1.609,0,0,0,20.165,1c-.048,0-.094,0-.142-.006A1.65,1.65,0,0,0,19.81,1c-.04,0-.078.013-.117.02-.054.01-.108.013-.163.029-.029.008-.055.024-.083.034l-.027.011A1.894,1.894,0,0,0,18.3,2.328c0,.006,0,.01-.006.016Q16.352,8.59,14.412,14.836H1.772A1.8,1.8,0,0,0,.065,16.2a1.944,1.944,0,0,0,.814,2.091l10.083,7.66Q9.13,31.842,7.3,37.737q-.134.433-.27.868c-.456,1.467,1.333,3.054,2.6,2.091L20,32.815l9.667,7.346.706.535c1.269.964,3.057-.624,2.6-2.091q-1.965-6.331-3.934-12.661l9.376-7.123.706-.537A1.942,1.942,0,0,0,39.935,16.194ZM20.893,28.938a1.65,1.65,0,0,0-1.788,0l-7.011,5.328,2.38-7.658q.135-.433.27-.868a1.925,1.925,0,0,0-.814-2.091L7.2,18.539h8.489A1.816,1.816,0,0,0,17.4,17.18L20,8.821q1.162,3.745,2.326,7.489c.09.29.179.579.27.868A1.815,1.815,0,0,0,24.3,18.537h8.489l-6.017,4.572-.707.537a1.925,1.925,0,0,0-.814,2.091Q26.579,30,27.9,34.265l-6.3-4.79Z" transform="translate(0 -0.991)" fill="#505050"/>
</svg>
