<svg xmlns="http://www.w3.org/2000/svg" xmlns:xlink="http://www.w3.org/1999/xlink" width="41.25" height="41.25" viewBox="0 0 41.25 41.25">
  <defs>
    <filter id="Path_12" x="0" y="0" width="41.25" height="41.25" filterUnits="userSpaceOnUse">
      <feOffset dy="3" input="SourceAlpha"/>
      <feGaussianBlur stdDeviation="2" result="blur"/>
      <feFlood flood-opacity="0.161"/>
      <feComposite operator="in" in2="blur"/>
      <feComposite in="SourceGraphic"/>
    </filter>
  </defs>
  <g id="Icon_ionic-md-add-circle-outline" data-name="Icon ionic-md-add-circle-outline" transform="translate(6 3)">
    <path id="Path_11" data-name="Path 11" d="M25.523,19.477H19.477v6.047H16.523V19.477H10.477V16.523h6.047V10.477h2.953v6.047h6.047Z" transform="translate(-3.375 -3.375)" fill="#254c50"/>
    <g transform="matrix(1, 0, 0, 1, -6, -3)" filter="url(#Path_12)">
      <path id="Path_12-2" data-name="Path 12" d="M18,6.328A11.667,11.667,0,1,1,9.745,9.745,11.623,11.623,0,0,1,18,6.328m0-2.953A14.625,14.625,0,1,0,32.625,18,14.623,14.623,0,0,0,18,3.375Z" transform="translate(2.63 -0.38)" fill="#254c50"/>
    </g>
  </g>
</svg>
