<svg xmlns="http://www.w3.org/2000/svg" width="26.862" height="24.251">

  <path data-name="Icon material-favorite-border"
    d="M19.475 0a8.1 8.1 0 00-6.044 2.762A8.1 8.1 0 007.387 0 7.257 7.257 0 000 7.269c0 5 4.567 9.066 11.484 15.251l1.948 1.731 1.948-1.744c6.92-6.173 11.482-10.243 11.482-15.238A7.257 7.257 0 0019.475 0zm-5.91 20.55l-.134.132-.131-.132C6.9 14.854 2.686 11.088 2.686 7.269a4.554 4.554 0 014.7-4.625 5.253 5.253 0 014.795 3.119h2.512a5.219 5.219 0 014.781-3.119 4.554 4.554 0 014.7 4.625c.002 3.819-4.215 7.585-10.609 13.281z"
    fill="#505050" />
</svg>