<svg xmlns="http://www.w3.org/2000/svg" width="24" height="24" viewBox="0 0 24 24"><defs><style>.a{fill:none;}.b{fill:#404040;}</style></defs><rect class="a" width="24" height="24"/><path class="b" d="M21,8a2,2,0,0,0-1.93,2.51l-3.55,3.56a2.037,2.037,0,0,0-1.04,0l-2.55-2.55a2,2,0,1,0-3.86,0L3.51,16.07a2,2,0,1,0,1.42,1.42l4.55-4.56a2.037,2.037,0,0,0,1.04,0l2.55,2.55a2,2,0,1,0,3.86,0l3.56-3.55A2,2,0,1,0,21,8Z"/><path class="b" d="M15,9l.94-2.07L18,6l-2.06-.93L15,3l-.92,2.07L12,6l2.08.93Z"/><path class="b" d="M3.5,11,4,9l2-.5L4,8,3.5,6,3,8,1,8.5,3,9Z"/></svg>