<svg xmlns="http://www.w3.org/2000/svg" width="57.789" height="57.79" viewBox="0 0 57.789 57.79"><defs><style>.a{fill:none;}.b,.d{fill:#56afae;}.b{stroke:#56afae;stroke-width:5px;}.c{fill:#fff;}</style></defs><g transform="translate(1.961 2.5)"><path class="a" d="M0,0H53.867V53.867H0Z"/><path class="b" d="M53.029,26.395A28.258,28.258,0,0,1,44.9,45.45a26.933,26.933,0,0,1-18.27,7.339C14.335,52.453.24,42.128.24,26.395a26.395,26.395,0,1,1,52.789,0Z" transform="translate(0.299)"/><path class="c" d="M21.956,21.956a8.978,8.978,0,1,0-8.978-8.978,8.978,8.978,0,0,0,8.978,8.978Zm0,0C16.636,21.956,4,29.452,4,35.422v3.524H39.911V35.422C39.911,29.452,28.4,21.956,21.956,21.956Zm.786,25.856c5.948,0,14.926-2.873,17.17-8.866l-.584-4.107L4.651,34.457,4,38.946C6.446,44.827,16.748,47.812,22.741,47.812Z" transform="translate(4.978 4.978)"/><path class="d" d="M19.1,20.75" transform="translate(23.769 25.822)"/><path class="d" d="M4.88,20.39" transform="translate(6.073 25.374)"/></g></svg>