<svg xmlns="http://www.w3.org/2000/svg" width="51" height="51" viewBox="0 0 51 51"><defs><style>.a{fill:none;}.b{fill:#f2f2f2;}</style></defs><g transform="translate(0 -0.19)"><rect class="a" width="51" height="51" transform="translate(0 0.19)"/><path class="b" d="M33.526,10.436H29.308a8.436,8.436,0,0,0-16.872,0H8.218A4.23,4.23,0,0,0,4,14.654V39.963a4.23,4.23,0,0,0,4.218,4.218H33.526a4.23,4.23,0,0,0,4.218-4.218V14.654A4.23,4.23,0,0,0,33.526,10.436ZM20.872,6.218a4.23,4.23,0,0,1,4.218,4.218H16.654A4.23,4.23,0,0,1,20.872,6.218ZM33.526,39.963H8.218V14.654h4.218v4.218a2.109,2.109,0,1,0,4.218,0V14.654H25.09v4.218a2.109,2.109,0,1,0,4.218,0V14.654h4.218Z" transform="translate(4.712 2.326)"/></g></svg>